
        <svg xmlns="http://www.w3.org/2000/svg" xmlns:xlink="http://www.w3.org/1999/xlink" version="1.1" width="3168.5393258426966" 
        height="1011.2231761750425" viewBox="0 0 3168.5393258426966 1011.2231761750425">
			
			<g transform="scale(8.426966292134832) translate(10, 10)">
				<defs id="SvgjsDefs4442"><linearGradient id="SvgjsLinearGradient4449"><stop id="SvgjsStop4450" stop-color="#00ff8f" offset="0"></stop><stop id="SvgjsStop4451" stop-color="#00a1ff" offset="1"></stop></linearGradient><linearGradient id="SvgjsLinearGradient4452"><stop id="SvgjsStop4453" stop-color="#00ff8f" offset="0"></stop><stop id="SvgjsStop4454" stop-color="#00a1ff" offset="1"></stop></linearGradient><linearGradient id="SvgjsLinearGradient4455"><stop id="SvgjsStop4456" stop-color="#00ff8f" offset="0"></stop><stop id="SvgjsStop4457" stop-color="#00a1ff" offset="1"></stop></linearGradient></defs><g id="SvgjsG4443" featureKey="symbolFeature-0" transform="matrix(1.029850516418114,0,0,1.029850516418114,-1.647760850822532,-1.4417906984318098)" fill="url(#SvgjsLinearGradient4449)"><path xmlns="http://www.w3.org/2000/svg" d="M65.3,57.4c0-6.3-7.6-8.3-12.1-8.9l-0.3,0V34.1l0.5,0.2c5.7,1.8,6.5,9,6.5,9.3l0.1,0.9l5.4-0.5L65.3,43  c-0.4-4.3-3.5-12.9-12.1-14.4l-0.3-0.1v-5.4h-5.5v5.5l-0.3,0.1c-3.7,0.8-7.1,2.6-9.2,5c-2.4,2.7-3.3,6.1-2.8,9.9  c0.9,6.7,7.9,9,12,9.8l0.3,0.1v11.5l-0.5-0.2c-6.3-2.1-6.4-7.3-6.4-7.5v-0.9l-5.4-0.1l0,0.9c0,0.1,0.1,10.7,12,13.3l0.3,0.1v6.5h5.5  V71l0.3,0c2.2-0.2,5.4-1,8-3.3C63.9,65.2,65.3,61.7,65.3,57.4z M47.4,47.9l-0.5-0.1c-2.7-0.6-6.1-2-6.4-4.9  c-0.3-2.3,0.2-4.1,1.5-5.6c1.4-1.6,3.5-2.5,4.9-2.9l0.5-0.1V47.9z M57.5,63.5c-1.1,0.9-2.6,1.6-4.2,1.9l-0.4,0.1V54l0.4,0.1  c3,0.5,6.6,1.7,6.6,3.4C59.9,60.1,59.1,62.2,57.5,63.5z"></path><path xmlns="http://www.w3.org/2000/svg" d="M83.2,73.4c4.9-6.8,7.5-15,7.5-23.6c0.1-10.9-4.1-21.2-11.7-28.9c-7.7-7.7-17.9-12-28.8-12  C27.8,8.8,9.5,27.1,9.5,49.6s18.3,40.7,40.7,40.7c3.9,0,7.7-0.5,11.2-1.6l-0.8-4c-3.4,1-7,1.6-10.5,1.6c-20.2,0-36.6-16.4-36.6-36.6  c0-20.2,16.4-36.6,36.6-36.6s36.6,16.4,36.6,36.6c0,7.7-2.4,15.2-7,21.6L83.2,73.4z"></path><path xmlns="http://www.w3.org/2000/svg" d="M84.6,15.6C75.4,6.4,63.2,1.4,50.2,1.4c-4.5,0-8.9,0.6-13,1.8L38,6.9c4-1.1,8.1-1.7,12.2-1.7  C74.9,5.2,95,25.3,95,50S74.9,94.7,50.2,94.7C25.5,94.6,5.5,74.5,5.5,49.9c0-9.3,2.9-18.3,8.3-25.9l-3.3-1.9  C4.7,30.2,1.6,39.8,1.6,50c0,26.7,21.8,48.5,48.5,48.5c26.8,0,48.6-21.8,48.6-48.5C98.8,37,93.8,24.8,84.6,15.6z"></path></g><g id="SvgjsG4444" featureKey="textGroupContainer" transform="matrix(1,0,0,1,355,2)" fill="url(#SvgjsLinearGradient4452)"><rect xmlns="http://www.w3.org/2000/svg" y="0" height="1" width="1" opacity="0"></rect><rect xmlns="http://www.w3.org/2000/svg" y="0" x="-235" width="3" height="96"></rect></g><g id="SvgjsG4445" featureKey="nameFeature-0" transform="matrix(1.278772428420764,0,0,1.278772428420764,134.21483386797635,12.39386214210382)" fill="url(#SvgjsLinearGradient4455)"><path d="M5.68 40 l-2.72 0 l0 -28.8 l18.56 0 l0 2.32 l-15.84 0 l0 10.4 l14.4 0 l0 2.32 l-14.4 0 l0 13.76 z M27.880000000000003 40 l-2.4 0 l0 -20.72 l2.4 0 l0 20.72 z M28 14.760000000000002 l-2.64 0 l0 -3.56 l2.64 0 l0 3.56 z M36.400000000000006 28.84 l0 11.16 l-2.4 0 l0 -20.72 l2.4 0 l0 2.88 c1.92 -2.04 3.8 -3.44 6.68 -3.44 c2.52 0 4.84 0.8 6.32 2.96 c1 1.48 1.04 3.04 1.04 4.76 l0 13.56 l-2.4 0 l0 -13.52 c0 -3.72 -1.52 -5.6 -5.36 -5.6 c-2.96 0 -5 1.92 -5.76 4.04 c-0.48 1.32 -0.52 2.48 -0.52 3.92 z M69.80000000000001 32.36 l0 -3.24 c-2.04 0.84 -4.12 1 -6.2 1.16 c-3.64 0.28 -5.84 1.6 -5.84 4.4 c0 2.52 2.2 3.72 4.48 3.72 c3.8 0 7.56 -1.84 7.56 -6.04 z M62.440000000000005 28.36 l3.32 -0.44 c0.88 -0.08 2.36 -0.32 3.16 -0.68 s0.88 -1.44 0.88 -2.16 c0 -2.44 -1.44 -4.2 -5.16 -4.2 c-3.32 0 -5.6 1.08 -6.04 4.68 l-2.44 0 c0.36 -4.88 4 -6.84 8.52 -6.84 c4.2 0 7.52 1.64 7.52 6.44 l0 11.28 c0 1.88 0.48 2.32 2.52 1.6 l0 1.88 c-0.36 0.12 -1.2 0.4 -1.88 0.4 c-0.4 0 -0.72 -0.04 -1.08 -0.12 c-1.6 -0.24 -1.88 -1.64 -1.92 -3.08 c-2 2.24 -4.72 3.44 -7.72 3.44 c-3.64 0 -6.92 -1.96 -6.92 -5.96 c0 -3.48 2.4 -5.6 7.24 -6.24 z M80.88000000000001 28.84 l0 11.16 l-2.4 0 l0 -20.72 l2.4 0 l0 2.88 c1.92 -2.04 3.8 -3.44 6.68 -3.44 c2.52 0 4.84 0.8 6.32 2.96 c1 1.48 1.04 3.04 1.04 4.76 l0 13.56 l-2.4 0 l0 -13.52 c0 -3.72 -1.52 -5.6 -5.36 -5.6 c-2.96 0 -5 1.92 -5.76 4.04 c-0.48 1.32 -0.52 2.48 -0.52 3.92 z M117.84 25.8 l-2.44 0 c-0.84 -3.08 -2.96 -4.92 -6.16 -4.92 c-4.92 0 -6.96 4.48 -6.96 8.8 c0 4.36 2 8.72 6.96 8.72 c3.56 0 5.8 -2.12 6.36 -5.56 l2.56 0 c-0.84 4.6 -3.72 7.72 -8.92 7.72 c-6.6 0 -9.52 -4.76 -9.52 -10.88 c0 -5.76 3.32 -10.96 9.52 -10.96 c4.76 0 7.88 2.28 8.6 7.08 z M125.72000000000001 40 l-2.4 0 l0 -20.72 l2.4 0 l0 20.72 z M125.84000000000002 14.760000000000002 l-2.64 0 l0 -3.56 l2.64 0 l0 3.56 z M132.84 21.28 l-3.08 0 l0 -2 l3.08 0 l0 -3.28 c0 -3.28 1.2 -5.36 4.4 -5.36 c0.72 0 1.36 0.04 2 0.16 l0 2.2 c-0.48 -0.12 -1 -0.2 -1.44 -0.2 c-2.48 0 -2.56 2.04 -2.56 3.92 l0 2.56 l4 0 l0 2 l-4 0 l0 18.72 l-2.4 0 l0 -18.72 z M142.8 47.88 l0 -2.24 c0.64 0.12 1.32 0.24 2 0.24 c2.72 0 3.12 -3.92 4.04 -5.72 l-8.04 -20.88 l2.68 0 l6.64 17.8 l6.64 -17.8 l2.6 0 l-7.72 20.44 c-1.96 5.2 -3.24 8.44 -6.56 8.44 c-0.84 0 -1.64 -0.12 -2.28 -0.28 z"></path></g>
			</g>
		</svg>
	